<svg xmlns="http://www.w3.org/2000/svg" xmlns:xlink="http://www.w3.org/1999/xlink" version="1.1" width="256" height="256" viewBox="0 0 256 256" xml:space="preserve">

<defs>
</defs>
<g style="stroke: none; stroke-width: 0; stroke-dasharray: none; stroke-linecap: butt; stroke-linejoin: miter; stroke-miterlimit: 10; fill: none; fill-rule: nonzero; opacity: 1;" transform="translate(1.4065934065934016 1.4065934065934016) scale(2.81 2.81)" >
	<path d="M 88.49 44.565 h -6.015 c -0.329 0 -0.598 -0.268 -0.598 -0.597 v -6.015 L 88.49 44.565 z" style="stroke: none; stroke-width: 1; stroke-dasharray: none; stroke-linecap: butt; stroke-linejoin: miter; stroke-miterlimit: 10; fill: rgb(0,0,0); fill-rule: nonzero; opacity: 1;" transform=" matrix(1 0 0 1 0 0) " stroke-linecap="round" />
	<path d="M 34.117 0.882 c 22.907 0 33.817 4.723 34.115 6.527 c -0.001 0.008 -0.006 0.016 -0.008 0.024 c -0.01 0.049 -0.025 0.1 -0.051 0.153 c -0.006 0.013 -0.018 0.027 -0.025 0.039 c -0.027 0.05 -0.056 0.1 -0.096 0.153 c -0.016 0.021 -0.04 0.045 -0.059 0.067 c -0.039 0.046 -0.076 0.092 -0.125 0.141 c -0.028 0.027 -0.064 0.056 -0.094 0.084 c -0.049 0.045 -0.095 0.089 -0.152 0.135 c -0.05 0.041 -0.112 0.084 -0.168 0.126 c -0.047 0.035 -0.089 0.069 -0.141 0.105 c -0.066 0.046 -0.143 0.093 -0.217 0.14 c -0.053 0.034 -0.1 0.067 -0.157 0.101 c -0.083 0.05 -0.177 0.102 -0.268 0.154 c -0.057 0.032 -0.108 0.064 -0.169 0.097 c -0.109 0.059 -0.229 0.119 -0.348 0.179 c -0.052 0.026 -0.098 0.052 -0.152 0.078 c -0.114 0.056 -0.239 0.112 -0.361 0.169 c -0.069 0.032 -0.133 0.064 -0.205 0.096 c -0.144 0.064 -0.3 0.129 -0.455 0.194 c -0.059 0.025 -0.113 0.049 -0.173 0.074 c -0.152 0.062 -0.316 0.124 -0.478 0.187 c -0.074 0.028 -0.142 0.057 -0.218 0.085 c -0.172 0.065 -0.356 0.129 -0.54 0.194 c -0.074 0.026 -0.143 0.052 -0.219 0.079 c -0.2 0.069 -0.411 0.138 -0.623 0.207 c -0.068 0.022 -0.132 0.045 -0.201 0.067 c -0.171 0.055 -0.354 0.109 -0.534 0.163 c -0.121 0.037 -0.236 0.074 -0.36 0.11 c -0.158 0.046 -0.327 0.092 -0.49 0.139 c -0.155 0.044 -0.305 0.088 -0.465 0.131 c -0.202 0.055 -0.415 0.109 -0.624 0.163 c -0.133 0.034 -0.26 0.069 -0.397 0.103 c -0.198 0.05 -0.408 0.098 -0.613 0.147 c -0.16 0.038 -0.313 0.077 -0.477 0.114 c -0.213 0.049 -0.438 0.097 -0.659 0.145 c -0.165 0.036 -0.325 0.073 -0.494 0.109 c -0.228 0.048 -0.467 0.094 -0.702 0.141 c -0.174 0.035 -0.343 0.071 -0.521 0.105 c -0.195 0.038 -0.402 0.074 -0.602 0.111 c -0.229 0.042 -0.453 0.085 -0.688 0.126 c -0.226 0.04 -0.463 0.077 -0.695 0.116 c -0.22 0.036 -0.433 0.074 -0.658 0.11 c -0.266 0.042 -0.544 0.082 -0.818 0.123 c -0.203 0.03 -0.4 0.062 -0.607 0.091 c -0.186 0.026 -0.381 0.051 -0.57 0.076 c -0.306 0.042 -0.609 0.084 -0.925 0.124 c -0.083 0.01 -0.17 0.02 -0.253 0.03 c -0.429 0.053 -0.861 0.105 -1.305 0.155 c -0.131 0.014 -0.268 0.027 -0.4 0.041 c -0.405 0.043 -0.81 0.087 -1.228 0.127 c -0.239 0.023 -0.488 0.043 -0.731 0.065 c -0.32 0.029 -0.635 0.059 -0.962 0.085 c -0.311 0.025 -0.634 0.047 -0.952 0.071 c -0.272 0.02 -0.539 0.042 -0.816 0.061 c -0.233 0.016 -0.475 0.028 -0.711 0.043 c -0.373 0.023 -0.741 0.047 -1.122 0.068 c -0.22 0.012 -0.45 0.02 -0.673 0.031 c -0.408 0.02 -0.814 0.041 -1.232 0.057 c -0.046 0.002 -0.094 0.003 -0.139 0.005 c -0.602 0.023 -1.211 0.044 -1.833 0.06 c -0.197 0.005 -0.403 0.007 -0.603 0.012 c -1.153 0.026 -2.332 0.042 -3.553 0.042 c -3.583 0 -6.873 -0.116 -9.875 -0.317 C 8.041 12.528 0.24 8.925 0.001 7.411 C 0.29 5.609 11.198 0.882 34.117 0.882 z" style="stroke: none; stroke-width: 1; stroke-dasharray: none; stroke-linecap: butt; stroke-linejoin: miter; stroke-miterlimit: 10; fill: rgb(0,0,0); fill-rule: nonzero; opacity: 1;" transform=" matrix(1 0 0 1 0 0) " stroke-linecap="round" />
	<path d="M 68.03 12.989 c -0.369 0.192 -0.756 0.378 -1.161 0.557 c -0.106 0.047 -0.209 0.096 -0.318 0.142 c -0.487 0.208 -0.995 0.407 -1.525 0.599 c -0.111 0.04 -0.228 0.078 -0.341 0.118 c -0.456 0.159 -0.926 0.312 -1.408 0.46 c -0.135 0.041 -0.267 0.083 -0.404 0.124 c -0.577 0.17 -1.168 0.333 -1.776 0.488 c -0.123 0.031 -0.25 0.06 -0.374 0.091 c -0.522 0.129 -1.053 0.253 -1.594 0.371 c -0.157 0.035 -0.313 0.07 -0.472 0.103 c -0.64 0.136 -1.29 0.265 -1.951 0.387 c -0.125 0.023 -0.252 0.044 -0.377 0.067 c -0.57 0.102 -1.146 0.199 -1.726 0.292 c -0.173 0.028 -0.345 0.055 -0.518 0.082 c -0.68 0.104 -1.363 0.203 -2.052 0.295 c -0.116 0.015 -0.232 0.029 -0.348 0.044 c -0.6 0.078 -1.202 0.151 -1.805 0.22 c -0.183 0.021 -0.365 0.042 -0.548 0.062 c -0.693 0.076 -1.386 0.148 -2.076 0.212 c -0.095 0.009 -0.188 0.016 -0.283 0.025 c -0.619 0.057 -1.235 0.108 -1.849 0.156 c -0.179 0.014 -0.357 0.028 -0.535 0.041 c -0.682 0.051 -1.359 0.097 -2.027 0.138 c -0.075 0.004 -0.148 0.008 -0.222 0.012 c -0.613 0.036 -1.217 0.067 -1.814 0.095 c -0.166 0.008 -0.331 0.015 -0.496 0.022 c -0.65 0.028 -1.292 0.053 -1.916 0.072 c -0.03 0.001 -0.058 0.001 -0.088 0.002 c -0.6 0.018 -1.182 0.03 -1.753 0.04 c -0.153 0.003 -0.303 0.005 -0.453 0.007 c -0.584 0.008 -1.158 0.013 -1.705 0.013 c -0.547 0 -1.12 -0.005 -1.705 -0.013 c -0.15 -0.002 -0.301 -0.004 -0.453 -0.007 c -0.571 -0.01 -1.154 -0.022 -1.754 -0.04 c -0.03 -0.001 -0.057 -0.001 -0.087 -0.002 c -0.624 -0.019 -1.266 -0.044 -1.916 -0.072 c -0.164 -0.007 -0.329 -0.015 -0.495 -0.022 c -0.598 -0.028 -1.202 -0.059 -1.816 -0.095 c -0.074 -0.004 -0.146 -0.008 -0.221 -0.012 c -0.668 -0.04 -1.345 -0.087 -2.027 -0.138 c -0.178 -0.013 -0.356 -0.027 -0.534 -0.041 c -0.614 -0.048 -1.231 -0.099 -1.851 -0.156 c -0.093 -0.009 -0.186 -0.016 -0.279 -0.025 c -0.691 -0.065 -1.385 -0.136 -2.079 -0.212 c -0.181 -0.02 -0.362 -0.041 -0.543 -0.061 c -0.605 -0.069 -1.21 -0.142 -1.812 -0.221 c -0.114 -0.015 -0.228 -0.028 -0.341 -0.043 c -0.69 -0.092 -1.375 -0.191 -2.055 -0.296 c -0.172 -0.026 -0.342 -0.054 -0.513 -0.081 c -0.583 -0.093 -1.162 -0.19 -1.734 -0.293 c -0.123 -0.022 -0.248 -0.043 -0.371 -0.065 c -0.662 -0.122 -1.313 -0.252 -1.955 -0.388 c -0.157 -0.033 -0.31 -0.068 -0.465 -0.102 c -0.543 -0.119 -1.078 -0.243 -1.602 -0.373 c -0.122 -0.03 -0.247 -0.059 -0.368 -0.09 c -0.609 -0.155 -1.202 -0.318 -1.78 -0.489 c -0.135 -0.04 -0.266 -0.081 -0.399 -0.122 c -0.485 -0.148 -0.956 -0.302 -1.414 -0.462 c -0.112 -0.039 -0.227 -0.077 -0.338 -0.116 c -0.53 -0.191 -1.039 -0.391 -1.527 -0.599 c -0.108 -0.046 -0.21 -0.094 -0.316 -0.141 c -0.405 -0.18 -0.792 -0.365 -1.161 -0.557 C 0.139 12.956 0.064 12.926 0 12.892 V 32.47 c 0.275 1.793 11.183 6.526 34.117 6.526 c 1.223 0 2.434 -0.017 3.635 -0.047 c 0.391 -0.009 0.775 -0.027 1.164 -0.039 c 0.806 -0.026 1.61 -0.055 2.405 -0.094 c 0.452 -0.022 0.898 -0.05 1.346 -0.077 c 0.725 -0.043 1.447 -0.09 2.16 -0.144 c 0.456 -0.035 0.909 -0.072 1.361 -0.111 c 0.317 -0.027 0.627 -0.06 0.942 -0.09 v -1.263 c 0 -2.801 2.279 -5.079 5.079 -5.079 h 16.025 V 12.892 C 68.17 12.926 68.095 12.955 68.03 12.989 z M 35.081 30.856 h -1.928 c -1.212 0 -2.195 -0.983 -2.195 -2.195 s 0.983 -2.195 2.195 -2.195 h 1.928 c 1.212 0 2.195 0.983 2.195 2.195 S 36.293 30.856 35.081 30.856 z" style="stroke: none; stroke-width: 1; stroke-dasharray: none; stroke-linecap: butt; stroke-linejoin: miter; stroke-miterlimit: 10; fill: rgb(0,0,0); fill-rule: nonzero; opacity: 1;" transform=" matrix(1 0 0 1 0 0) " stroke-linecap="round" />
	<path d="M 46.398 42.874 c -0.435 0.037 -0.873 0.07 -1.312 0.103 c -0.753 0.057 -1.512 0.107 -2.278 0.152 c -0.444 0.026 -0.886 0.052 -1.334 0.074 c -0.819 0.04 -1.647 0.071 -2.478 0.097 c -0.393 0.013 -0.782 0.029 -1.177 0.038 c -1.224 0.029 -2.457 0.047 -3.702 0.047 c -0.547 0 -1.12 -0.005 -1.705 -0.013 c -0.15 -0.002 -0.301 -0.004 -0.453 -0.007 c -0.571 -0.01 -1.154 -0.022 -1.754 -0.04 c -0.03 -0.001 -0.057 -0.001 -0.087 -0.002 c -0.624 -0.019 -1.266 -0.044 -1.916 -0.072 c -0.164 -0.007 -0.329 -0.015 -0.495 -0.022 c -0.598 -0.028 -1.202 -0.059 -1.816 -0.095 c -0.074 -0.004 -0.146 -0.008 -0.221 -0.012 c -0.668 -0.04 -1.345 -0.087 -2.027 -0.138 c -0.178 -0.013 -0.356 -0.027 -0.534 -0.041 c -0.614 -0.048 -1.231 -0.099 -1.851 -0.156 c -0.093 -0.009 -0.186 -0.016 -0.279 -0.025 c -0.691 -0.065 -1.385 -0.136 -2.079 -0.212 c -0.181 -0.02 -0.362 -0.041 -0.543 -0.061 c -0.605 -0.069 -1.21 -0.142 -1.812 -0.221 c -0.114 -0.015 -0.228 -0.028 -0.341 -0.043 c -0.69 -0.092 -1.375 -0.191 -2.055 -0.296 c -0.172 -0.026 -0.342 -0.054 -0.513 -0.081 c -0.583 -0.093 -1.162 -0.19 -1.734 -0.293 c -0.123 -0.022 -0.248 -0.043 -0.371 -0.065 c -0.662 -0.122 -1.313 -0.252 -1.955 -0.388 C 9.416 41.068 9.263 41.034 9.108 41 c -0.543 -0.119 -1.078 -0.243 -1.602 -0.373 c -0.122 -0.03 -0.247 -0.059 -0.368 -0.09 c -0.609 -0.155 -1.202 -0.318 -1.78 -0.489 c -0.135 -0.04 -0.266 -0.081 -0.399 -0.122 c -0.485 -0.148 -0.956 -0.302 -1.414 -0.462 c -0.112 -0.039 -0.227 -0.077 -0.338 -0.116 c -0.53 -0.191 -1.039 -0.391 -1.527 -0.599 c -0.108 -0.046 -0.21 -0.094 -0.316 -0.141 c -0.405 -0.18 -0.792 -0.365 -1.161 -0.557 C 0.139 38.017 0.064 37.987 0 37.953 v 19.578 c 0.275 1.793 11.183 6.526 34.117 6.526 c 1.223 0 2.434 -0.017 3.635 -0.046 c 0.389 -0.009 0.771 -0.026 1.157 -0.039 c 0.809 -0.026 1.615 -0.055 2.412 -0.094 c 0.451 -0.022 0.897 -0.05 1.345 -0.077 c 0.723 -0.043 1.443 -0.09 2.155 -0.144 c 0.461 -0.035 0.919 -0.073 1.374 -0.112 c 0.314 -0.027 0.622 -0.06 0.934 -0.09 V 42.817 C 46.888 42.839 46.64 42.854 46.398 42.874 z M 35.081 55.917 h -1.928 c -1.212 0 -2.195 -0.983 -2.195 -2.195 c 0 -1.212 0.983 -2.195 2.195 -2.195 h 1.928 c 1.212 0 2.195 0.983 2.195 2.195 C 37.276 54.934 36.293 55.917 35.081 55.917 z" style="stroke: none; stroke-width: 1; stroke-dasharray: none; stroke-linecap: butt; stroke-linejoin: miter; stroke-miterlimit: 10; fill: rgb(0,0,0); fill-rule: nonzero; opacity: 1;" transform=" matrix(1 0 0 1 0 0) " stroke-linecap="round" />
	<path d="M 47.129 88.43 V 67.878 c -0.242 0.022 -0.49 0.037 -0.733 0.058 c -0.43 0.037 -0.864 0.07 -1.298 0.102 c -0.764 0.058 -1.534 0.109 -2.311 0.154 c -0.432 0.025 -0.863 0.05 -1.299 0.072 c -0.833 0.041 -1.674 0.072 -2.519 0.099 c -0.381 0.012 -0.759 0.028 -1.142 0.037 c -1.227 0.029 -2.462 0.048 -3.709 0.048 c -0.547 0 -1.12 -0.005 -1.705 -0.013 c -0.15 -0.002 -0.301 -0.004 -0.453 -0.007 c -0.571 -0.01 -1.154 -0.022 -1.754 -0.04 c -0.03 -0.001 -0.057 -0.001 -0.087 -0.002 c -0.623 -0.019 -1.264 -0.044 -1.914 -0.072 c -0.167 -0.007 -0.335 -0.015 -0.503 -0.023 c -0.594 -0.028 -1.196 -0.059 -1.806 -0.095 c -0.075 -0.004 -0.149 -0.008 -0.225 -0.013 c -0.665 -0.04 -1.339 -0.087 -2.018 -0.137 c -0.186 -0.014 -0.372 -0.028 -0.559 -0.043 c -0.597 -0.047 -1.196 -0.097 -1.799 -0.152 c -0.109 -0.01 -0.217 -0.019 -0.326 -0.029 c -0.685 -0.064 -1.373 -0.135 -2.061 -0.211 c -0.189 -0.021 -0.376 -0.042 -0.565 -0.064 c -0.589 -0.067 -1.176 -0.139 -1.762 -0.215 c -0.13 -0.017 -0.261 -0.032 -0.39 -0.05 c -0.679 -0.091 -1.354 -0.188 -2.024 -0.291 c -0.188 -0.029 -0.374 -0.059 -0.561 -0.089 c -0.558 -0.089 -1.112 -0.182 -1.66 -0.281 c -0.144 -0.026 -0.289 -0.05 -0.431 -0.076 c -0.65 -0.12 -1.29 -0.247 -1.92 -0.381 C 9.42 66.13 9.25 66.092 9.079 66.055 c -0.52 -0.114 -1.032 -0.233 -1.534 -0.357 c -0.14 -0.035 -0.283 -0.068 -0.422 -0.103 c -0.598 -0.152 -1.18 -0.313 -1.747 -0.48 c -0.15 -0.044 -0.295 -0.09 -0.443 -0.136 c -0.463 -0.142 -0.913 -0.289 -1.352 -0.441 c -0.129 -0.045 -0.26 -0.088 -0.387 -0.133 c -0.521 -0.188 -1.022 -0.385 -1.502 -0.589 c -0.119 -0.051 -0.23 -0.103 -0.346 -0.155 c -0.39 -0.174 -0.764 -0.353 -1.121 -0.538 C 0.153 63.085 0.07 63.052 0 63.014 v 19.577 c 0.275 1.793 11.183 6.526 34.117 6.526 c 4.517 0 8.882 -0.197 13.013 -0.586 C 47.129 88.497 47.129 88.464 47.129 88.43 z M 35.081 80.978 h -1.928 c -1.212 0 -2.195 -0.983 -2.195 -2.195 c 0 -1.212 0.983 -2.195 2.195 -2.195 h 1.928 c 1.212 0 2.195 0.983 2.195 2.195 C 37.276 79.995 36.293 80.978 35.081 80.978 z" style="stroke: none; stroke-width: 1; stroke-dasharray: none; stroke-linecap: butt; stroke-linejoin: miter; stroke-miterlimit: 10; fill: rgb(0,0,0); fill-rule: nonzero; opacity: 1;" transform=" matrix(1 0 0 1 0 0) " stroke-linecap="round" />
	<path d="M 82.395 48.955 c -2.706 0 -4.908 -2.202 -4.908 -4.907 v -7.605 h -7.059 h -0.757 H 52.208 c -0.381 0 -0.689 0.309 -0.689 0.689 v 3.258 v 25.062 V 88.43 c 0 0.11 0.027 0.204 0.065 0.283 c 0.004 0.008 0.011 0.014 0.015 0.022 c 0.036 0.067 0.078 0.126 0.118 0.168 c 0.006 0.006 0.009 0.014 0.015 0.02 c 0.124 0.12 0.291 0.195 0.477 0.195 h 37.104 c 0.379 0 0.688 -0.309 0.688 -0.688 V 48.955 H 82.395 z M 64.347 72.801 c 0.69 0.69 0.69 1.809 0 2.499 c -0.345 0.345 -0.797 0.518 -1.25 0.518 c -0.452 0 -0.904 -0.173 -1.25 -0.518 l -4.07 -4.07 c -0.69 -0.69 -0.69 -1.809 0 -2.499 l 4.07 -4.07 c 0.69 -0.69 1.809 -0.69 2.499 0 s 0.69 1.809 0 2.499 l -2.82 2.82 L 64.347 72.801 z M 75.357 66.694 l -4.024 8.14 c -0.308 0.623 -0.935 0.984 -1.586 0.984 c -0.262 0 -0.53 -0.059 -0.782 -0.183 c -0.875 -0.432 -1.233 -1.493 -0.801 -2.368 l 4.024 -8.14 c 0.432 -0.874 1.49 -1.235 2.368 -0.801 C 75.431 64.758 75.789 65.818 75.357 66.694 z M 85.742 71.23 l -4.07 4.07 c -0.345 0.345 -0.797 0.518 -1.25 0.518 c -0.452 0 -0.904 -0.173 -1.25 -0.518 c -0.69 -0.69 -0.69 -1.809 0 -2.499 l 2.82 -2.82 l -2.82 -2.82 c -0.69 -0.69 -0.69 -1.809 0 -2.499 s 1.809 -0.69 2.499 0 l 4.07 4.07 C 86.433 69.421 86.433 70.539 85.742 71.23 z" style="stroke: none; stroke-width: 1; stroke-dasharray: none; stroke-linecap: butt; stroke-linejoin: miter; stroke-miterlimit: 10; fill: rgb(0,0,0); fill-rule: nonzero; opacity: 1;" transform=" matrix(1 0 0 1 0 0) " stroke-linecap="round" />
</g>
</svg>